<?xml version="1.0" encoding="UTF-8" standalone="no"?>
<!-- Created with Inkscape (http://www.inkscape.org/) -->

<svg
   xmlns:dc="http://purl.org/dc/elements/1.1/"
   xmlns:cc="http://creativecommons.org/ns#"
   xmlns:rdf="http://www.w3.org/1999/02/22-rdf-syntax-ns#"
   xmlns:svg="http://www.w3.org/2000/svg"
   xmlns="http://www.w3.org/2000/svg"
   xmlns:sodipodi="http://sodipodi.sourceforge.net/DTD/sodipodi-0.dtd"
   xmlns:inkscape="http://www.inkscape.org/namespaces/inkscape"
   width="260"
   height="260"
   id="svg3779"
   version="1.1"
   inkscape:version="0.92.4 (unknown)"
   sodipodi:docname="logo_48x48.svg"
   inkscape:export-filename="/home/andrew/Documents/Personal_Projects/blog/logo_48x48.png"
   inkscape:export-xdpi="200"
   inkscape:export-ydpi="200">
  <defs
     id="defs3781" />
  <sodipodi:namedview
     id="base"
     pagecolor="#ffffff"
     bordercolor="#666666"
     borderopacity="1.0"
     inkscape:pageopacity="0.0"
     inkscape:pageshadow="2"
     inkscape:zoom="1.2374369"
     inkscape:cx="58.742236"
     inkscape:cy="100.53925"
     inkscape:current-layer="layer1"
     showgrid="true"
     inkscape:grid-bbox="true"
     inkscape:document-units="px"
     inkscape:window-width="1871"
     inkscape:window-height="1025"
     inkscape:window-x="49"
     inkscape:window-y="27"
     inkscape:window-maximized="1" />
  <metadata
     id="metadata3784">
    <rdf:RDF>
      <cc:Work
         rdf:about="">
        <dc:format>image/svg+xml</dc:format>
        <dc:type
           rdf:resource="http://purl.org/dc/dcmitype/StillImage" />
        <dc:title></dc:title>
      </cc:Work>
    </rdf:RDF>
  </metadata>
  <g
     id="layer1"
     inkscape:label="Layer 1"
     inkscape:groupmode="layer"
     transform="translate(0,212)">
    <path
       style="color:#000000;font-style:normal;font-variant:normal;font-weight:normal;font-stretch:normal;font-size:medium;line-height:normal;font-family:sans-serif;font-variant-ligatures:normal;font-variant-position:normal;font-variant-caps:normal;font-variant-numeric:normal;font-variant-alternates:normal;font-feature-settings:normal;text-indent:0;text-align:start;text-decoration:none;text-decoration-line:none;text-decoration-style:solid;text-decoration-color:#000000;letter-spacing:normal;word-spacing:normal;text-transform:none;writing-mode:lr-tb;direction:ltr;text-orientation:mixed;dominant-baseline:auto;baseline-shift:baseline;text-anchor:start;white-space:normal;shape-padding:0;clip-rule:nonzero;display:inline;overflow:visible;visibility:visible;opacity:1;isolation:auto;mix-blend-mode:normal;color-interpolation:sRGB;color-interpolation-filters:linearRGB;solid-color:#000000;solid-opacity:1;vector-effect:none;fill:#363636;fill-opacity:1;fill-rule:nonzero;stroke:none;stroke-width:5.55229712;stroke-linecap:butt;stroke-linejoin:round;stroke-miterlimit:3.32999992;stroke-dasharray:none;stroke-dashoffset:0;stroke-opacity:1;color-rendering:auto;image-rendering:auto;shape-rendering:auto;text-rendering:auto;enable-background:accumulate"
       d="m 130.74977,7.118711 c -14.95334,0 -28.48551,1.220882 -38.370189,3.222347 -4.942341,1.000732 -8.959484,2.18086 -11.889584,3.583562 -1.465052,0.701345 -2.65457,1.429322 -3.651093,2.415387 -0.996529,0.986064 -2.143544,2.543516 -2.143544,5.251274 0,2.707764 1.147015,4.264114 2.143544,5.250179 0.996523,0.986064 2.186041,1.714041 3.651093,2.415387 2.9301,1.402701 6.947243,2.582829 11.889584,3.583561 9.884679,2.00146 23.416849,3.223448 38.370189,3.223443 14.95335,5e-6 28.48619,-1.221983 38.37087,-3.223443 4.94234,-1.000732 8.95948,-2.18086 11.88958,-3.583561 1.46506,-0.701346 2.6539,-1.429323 3.65043,-2.415387 0.99653,-0.986065 2.14421,-2.542415 2.14421,-5.250179 0,-2.707758 -1.14768,-4.26521 -2.14421,-5.251274 -0.99653,-0.986065 -2.18537,-1.714042 -3.65043,-2.415387 -2.9301,-1.402702 -6.94724,-2.58283 -11.88958,-3.583562 -9.88468,-2.001465 -23.41752,-3.222347 -38.37087,-3.222347 z"
       id="path3757"
       inkscape:connector-curvature="0"
       sodipodi:nodetypes="ssccsccssscscscss" />
    <path
       style="fill:#363636;fill-opacity:1;stroke:none;stroke-width:5.39649963"
       d="m 121.22029,-24.501031 h 18.97336 v 44.397547 h -18.97336 z"
       id="rect3763"
       inkscape:connector-curvature="0" />
    <path
       style="color:#000000;font-style:normal;font-variant:normal;font-weight:normal;font-stretch:normal;font-size:medium;line-height:normal;font-family:sans-serif;font-variant-ligatures:normal;font-variant-position:normal;font-variant-caps:normal;font-variant-numeric:normal;font-variant-alternates:normal;font-feature-settings:normal;text-indent:0;text-align:start;text-decoration:none;text-decoration-line:none;text-decoration-style:solid;text-decoration-color:#000000;letter-spacing:normal;word-spacing:normal;text-transform:none;writing-mode:lr-tb;direction:ltr;text-orientation:mixed;dominant-baseline:auto;baseline-shift:baseline;text-anchor:start;white-space:normal;shape-padding:0;clip-rule:nonzero;display:inline;overflow:visible;visibility:visible;opacity:1;isolation:auto;mix-blend-mode:normal;color-interpolation:sRGB;color-interpolation-filters:linearRGB;solid-color:#000000;solid-opacity:1;vector-effect:none;fill:#363636;fill-opacity:1;fill-rule:nonzero;stroke:none;stroke-width:6.52746677;stroke-linecap:butt;stroke-linejoin:round;stroke-miterlimit:3.32999992;stroke-dasharray:none;stroke-dashoffset:0;stroke-opacity:1;color-rendering:auto;image-rendering:auto;shape-rendering:auto;text-rendering:auto;enable-background:accumulate"
       d="m 130.45694,-31.145941 c -18.44706,0 -35.15299,0.617759 -47.839189,1.692364 -6.343094,0.537329 -11.709298,1.180959 -15.891062,2.018442 -4.18178,0.837483 -7.428983,1.982318 -7.428972,3.330056 0,1.347743 3.247192,2.492583 7.428972,3.330061 4.181764,0.837483 9.547968,1.481625 15.891062,2.018933 12.686199,1.074605 29.392149,1.692364 47.839189,1.692364 18.44703,0 35.15298,-0.617759 47.83917,-1.692364 6.3431,-0.53733 11.7093,-1.18145 15.89108,-2.018933 4.18177,-0.837478 7.43104,-1.982318 7.43104,-3.330061 0,-1.347738 -3.24927,-2.492573 -7.43104,-3.330056 -4.18178,-0.837483 -9.54798,-1.48114 -15.89108,-2.018442 -12.68619,-1.074605 -29.39213,-1.692364 -47.83917,-1.692364 z m 0,3.166537 c 17.13799,0 32.64763,0.604165 43.28138,1.504916 5.31688,0.450392 9.3883,0.982282 11.72745,1.450741 2.33914,0.46847 2.69484,0.75926 2.69484,0.918668 0,0.159412 -0.35568,0.450715 -2.69484,0.919164 -2.33915,0.46847 -6.41057,1.00036 -11.72745,1.450735 -10.63375,0.900752 -26.1434,1.504922 -43.28138,1.504922 -17.13799,0 -32.647649,-0.60417 -43.281392,-1.504922 -5.316874,-0.450391 -9.386223,-0.982281 -11.725369,-1.450735 -2.339145,-0.46847 -2.696927,-0.759757 -2.696927,-0.919164 0,-0.159413 0.357788,-0.45023 2.696927,-0.918668 2.339135,-0.46847 6.408495,-1.000365 11.725369,-1.450741 10.633743,-0.900751 26.143402,-1.504916 43.281392,-1.504916 z"
       id="path3761"
       inkscape:connector-curvature="0" />
    <path
       style="color:#000000;font-style:normal;font-variant:normal;font-weight:normal;font-stretch:normal;font-size:medium;line-height:normal;font-family:sans-serif;font-variant-ligatures:normal;font-variant-position:normal;font-variant-caps:normal;font-variant-numeric:normal;font-variant-alternates:normal;font-feature-settings:normal;text-indent:0;text-align:start;text-decoration:none;text-decoration-line:none;text-decoration-style:solid;text-decoration-color:#000000;letter-spacing:normal;word-spacing:normal;text-transform:none;writing-mode:lr-tb;direction:ltr;text-orientation:mixed;dominant-baseline:auto;baseline-shift:baseline;text-anchor:start;white-space:normal;shape-padding:0;clip-rule:nonzero;display:inline;overflow:visible;visibility:visible;opacity:1;isolation:auto;mix-blend-mode:normal;color-interpolation:sRGB;color-interpolation-filters:linearRGB;solid-color:#000000;solid-opacity:1;vector-effect:none;fill:#363636;fill-opacity:1;fill-rule:nonzero;stroke:none;stroke-width:10.79299927;stroke-linecap:butt;stroke-linejoin:round;stroke-miterlimit:3.32999992;stroke-dasharray:none;stroke-dashoffset:0;stroke-opacity:1;color-rendering:auto;image-rendering:auto;shape-rendering:auto;text-rendering:auto;enable-background:accumulate"
       d="m 7.2275876,-185.06962 a 5.3970392,5.3970392 0 0 0 -5.3964998,5.3965 v 154.580195 a 5.3970392,5.3970392 0 0 0 5.3964998,5.3965 H 253.14775 a 5.3970392,5.3970392 0 0 0 5.3965,-5.3965 V -179.67312 a 5.3970392,5.3970392 0 0 0 -5.3965,-5.3965 z m 5.3964994,10.793 H 247.75125 V -30.489424 H 12.624087 Z"
       id="rect2987"
       inkscape:connector-curvature="0" />
    <path
       style="fill:#363636;stroke:none;stroke-width:8.66110039"
       d="m 110.0933,-145.20693 -2.16874,-16.3077 c 0,0 -11.902498,-7.49365 -25.067744,-15.3793 -6.69153,-4.00801 -15.14655,-7.08837 -20.75994,-8.96536 -5.61339,-1.87705 -5.652936,-2.15238 -11.134911,-3.35279 -8.516788,-1.86493 -6.386401,-2.45586 -6.441176,-3.20563 -0.0259,-0.35358 0.138043,-3.1828 0.138043,-3.1828 l 25.011729,3.27871 20.431336,5.27748 c 0,0 8.514381,3.17779 28.865013,14.57412 20.61073,11.54197 54.84305,33.50536 54.84305,33.50536 l -11.78591,18.71448 -30.26,-19.1856 c -26.03072,43.63408 -54.303642,88.846463 -77.14307,126.844469 0,0 -5.165378,7.85399 -13.868944,3.88066 -8.701365,-3.972363 -4.946545,-14.133092 -4.946545,-14.133092 z"
       id="path4360-9"
       inkscape:connector-curvature="0"
       sodipodi:nodetypes="ccsssscccsccccscc" />
    <path
       style="fill:#363636;fill-opacity:1;stroke:none;stroke-width:8.66110039"
       d="m 147.43143,-83.313093 11.67249,39.372883 -12.71779,3.484325 -31.70739,-11.846714 4.35542,-22.299685 z"
       id="path4434"
       inkscape:connector-curvature="0" />
    <path
       style="fill:#363636;fill-opacity:1;stroke:none;stroke-width:8.66110039"
       d="m 170.62698,-109.35097 20.29305,22.876241 -7.47943,6.361928 -25.12445,2.010692 -4.09628,-16.415661 z"
       id="path4434-7"
       inkscape:connector-curvature="0" />
    <path
       style="fill:#363636;fill-opacity:1;stroke:none;stroke-width:8.66110039"
       d="m 202.53446,-65.484192 -12.16271,35.078732 -11.18009,-4.138813 -17.05771,-25.406353 14.94648,-14.091113 z"
       id="path4434-5"
       inkscape:connector-curvature="0" />
  </g>
</svg>
