<?xml version="1.0" encoding="UTF-8" standalone="no"?>
<!-- Created with Inkscape (http://www.inkscape.org/) -->

<svg
   xmlns:dc="http://purl.org/dc/elements/1.1/"
   xmlns:cc="http://creativecommons.org/ns#"
   xmlns:rdf="http://www.w3.org/1999/02/22-rdf-syntax-ns#"
   xmlns:svg="http://www.w3.org/2000/svg"
   xmlns="http://www.w3.org/2000/svg"
   xmlns:sodipodi="http://sodipodi.sourceforge.net/DTD/sodipodi-0.dtd"
   xmlns:inkscape="http://www.inkscape.org/namespaces/inkscape"
   width="260"
   height="260"
   id="svg3779"
   version="1.1"
   inkscape:version="0.92.4 (unknown)"
   sodipodi:docname="logo_260x260.svg"
   inkscape:export-filename="/home/mass/Dropbox/blog/andrewjmoodie.com/private/logo_260x260.png"
   inkscape:export-xdpi="96"
   inkscape:export-ydpi="96">
  <defs
     id="defs3781" />
  <sodipodi:namedview
     id="base"
     pagecolor="#ffffff"
     bordercolor="#666666"
     borderopacity="1.0"
     inkscape:pageopacity="0.0"
     inkscape:pageshadow="2"
     inkscape:zoom="1.2374369"
     inkscape:cx="134.73148"
     inkscape:cy="74.117771"
     inkscape:current-layer="layer1"
     showgrid="true"
     inkscape:grid-bbox="true"
     inkscape:document-units="px"
     inkscape:window-width="1871"
     inkscape:window-height="1025"
     inkscape:window-x="49"
     inkscape:window-y="27"
     inkscape:window-maximized="1" />
  <metadata
     id="metadata3784">
    <rdf:RDF>
      <cc:Work
         rdf:about="">
        <dc:format>image/svg+xml</dc:format>
        <dc:type
           rdf:resource="http://purl.org/dc/dcmitype/StillImage" />
        <dc:title></dc:title>
      </cc:Work>
    </rdf:RDF>
  </metadata>
  <g
     id="layer1"
     inkscape:label="Layer 1"
     inkscape:groupmode="layer"
     transform="translate(0,212)">
    <rect
       style="opacity:1;vector-effect:none;fill:#f9f9f9;fill-opacity:1;stroke:none;stroke-width:2;stroke-miterlimit:3.32999992;stroke-dasharray:none;stroke-dashoffset:0;stroke-opacity:1"
       id="rect920"
       width="257.79092"
       height="256.17468"
       x="1.6162441"
       y="-209.79092"
       ry="16.970562" />
    <path
       style="color:#000000;font-style:normal;font-variant:normal;font-weight:normal;font-stretch:normal;font-size:medium;line-height:normal;font-family:sans-serif;font-variant-ligatures:normal;font-variant-position:normal;font-variant-caps:normal;font-variant-numeric:normal;font-variant-alternates:normal;font-feature-settings:normal;text-indent:0;text-align:start;text-decoration:none;text-decoration-line:none;text-decoration-style:solid;text-decoration-color:#000000;letter-spacing:normal;word-spacing:normal;text-transform:none;writing-mode:lr-tb;direction:ltr;text-orientation:mixed;dominant-baseline:auto;baseline-shift:baseline;text-anchor:start;white-space:normal;shape-padding:0;clip-rule:nonzero;display:inline;overflow:visible;visibility:visible;opacity:1;isolation:auto;mix-blend-mode:normal;color-interpolation:sRGB;color-interpolation-filters:linearRGB;solid-color:#000000;solid-opacity:1;vector-effect:none;fill:#363636;fill-opacity:1;fill-rule:nonzero;stroke:none;stroke-width:4.99061775;stroke-linecap:butt;stroke-linejoin:round;stroke-miterlimit:3.32999992;stroke-dasharray:none;stroke-dashoffset:0;stroke-opacity:1;color-rendering:auto;image-rendering:auto;shape-rendering:auto;text-rendering:auto;enable-background:accumulate"
       d="m 133.9802,-6.1155927 c -13.44063,0 -25.60387,1.097375 -34.488594,2.896369 -4.44237,0.8994963 -8.05313,1.9602407 -10.686819,3.22104314 -1.316845,0.6303958 -2.386029,1.28472946 -3.281742,2.17104256 -0.895719,0.8863122 -1.9267,2.2862098 -1.9267,4.7200467 0,2.4338422 1.030981,3.8327493 1.9267,4.7190623 0.895713,0.886312 1.964897,1.540646 3.281742,2.171043 2.633689,1.260801 6.244449,2.321546 10.686819,3.221042 8.884724,1.798989 21.047964,2.897358 34.488594,2.897354 13.44065,4e-6 25.60449,-1.098365 34.48922,-2.897354 4.44236,-0.899496 8.05312,-1.960241 10.68681,-3.221042 1.31685,-0.630397 2.38542,-1.284731 3.28114,-2.171043 0.89572,-0.886313 1.9273,-2.2852201 1.9273,-4.7190623 0,-2.4338369 -1.03158,-3.8337345 -1.9273,-4.7200467 -0.89572,-0.8863131 -1.96429,-1.54064676 -3.28114,-2.17104256 -2.63369,-1.26080244 -6.24445,-2.32154684 -10.68681,-3.22104314 -8.88473,-1.798994 -21.04857,-2.896369 -34.48922,-2.896369 z"
       id="path3757"
       inkscape:connector-curvature="0"
       sodipodi:nodetypes="ssccsccssscscscss" />
    <path
       style="fill:#363636;fill-opacity:1;stroke:none;stroke-width:4.85058117"
       d="m 125.41474,-34.536631 h 17.05399 V 5.3695888 h -17.05399 z"
       id="rect3763"
       inkscape:connector-curvature="0" />
    <path
       style="color:#000000;font-style:normal;font-variant:normal;font-weight:normal;font-stretch:normal;font-size:medium;line-height:normal;font-family:sans-serif;font-variant-ligatures:normal;font-variant-position:normal;font-variant-caps:normal;font-variant-numeric:normal;font-variant-alternates:normal;font-feature-settings:normal;text-indent:0;text-align:start;text-decoration:none;text-decoration-line:none;text-decoration-style:solid;text-decoration-color:#000000;letter-spacing:normal;word-spacing:normal;text-transform:none;writing-mode:lr-tb;direction:ltr;text-orientation:mixed;dominant-baseline:auto;baseline-shift:baseline;text-anchor:start;white-space:normal;shape-padding:0;clip-rule:nonzero;display:inline;overflow:visible;visibility:visible;opacity:1;isolation:auto;mix-blend-mode:normal;color-interpolation:sRGB;color-interpolation-filters:linearRGB;solid-color:#000000;solid-opacity:1;vector-effect:none;fill:#363636;fill-opacity:1;fill-rule:nonzero;stroke:none;stroke-width:5.86713791;stroke-linecap:butt;stroke-linejoin:round;stroke-miterlimit:3.32999992;stroke-dasharray:none;stroke-dashoffset:0;stroke-opacity:1;color-rendering:auto;image-rendering:auto;shape-rendering:auto;text-rendering:auto;enable-background:accumulate"
       d="m 133.717,-40.509332 c -16.58093,0 -31.59686,0.555266 -42.999704,1.521162 -5.701418,0.482972 -10.524768,1.061492 -14.283498,1.814253 -3.758745,0.752762 -6.677455,1.781784 -6.677445,2.993183 0,1.211403 2.9187,2.240429 6.677445,2.993186 3.75873,0.752762 8.58208,1.331742 14.283498,1.814695 11.402844,0.965896 26.418794,1.521161 42.999704,1.521161 16.5809,0 31.59685,-0.555265 42.99968,-1.521161 5.70142,-0.482973 10.52477,-1.061933 14.28351,-1.814695 3.75874,-0.752757 6.67931,-1.781783 6.67931,-2.993186 0,-1.211399 -2.92057,-2.240421 -6.67931,-2.993183 -3.75874,-0.752761 -8.58209,-1.331305 -14.28351,-1.814253 -11.40283,-0.965896 -26.41877,-1.521162 -42.99968,-1.521162 z m 0,2.846206 c 15.40428,0 29.34494,0.543046 38.90296,1.352676 4.77902,0.404829 8.43857,0.882913 10.54109,1.303982 2.10251,0.421078 2.42222,0.682452 2.42222,0.825734 0,0.143285 -0.3197,0.40512 -2.42222,0.826179 -2.10252,0.421079 -5.76207,0.899162 -10.54109,1.303977 -9.55802,0.80963 -23.49869,1.352681 -38.90296,1.352681 -15.40429,0 -29.34496,-0.543051 -38.902984,-1.352681 -4.779009,-0.404829 -8.436696,-0.882912 -10.539211,-1.303977 -2.102513,-0.421078 -2.424101,-0.682898 -2.424101,-0.826179 0,-0.143287 0.321594,-0.404684 2.424101,-0.825734 2.102505,-0.421079 5.760202,-0.899167 10.539211,-1.303982 9.558024,-0.80963 23.498694,-1.352676 38.902984,-1.352676 z"
       id="path3761"
       inkscape:connector-curvature="0" />
    <path
       style="color:#000000;font-style:normal;font-variant:normal;font-weight:normal;font-stretch:normal;font-size:medium;line-height:normal;font-family:sans-serif;font-variant-ligatures:normal;font-variant-position:normal;font-variant-caps:normal;font-variant-numeric:normal;font-variant-alternates:normal;font-feature-settings:normal;text-indent:0;text-align:start;text-decoration:none;text-decoration-line:none;text-decoration-style:solid;text-decoration-color:#000000;letter-spacing:normal;word-spacing:normal;text-transform:none;writing-mode:lr-tb;direction:ltr;text-orientation:mixed;dominant-baseline:auto;baseline-shift:baseline;text-anchor:start;white-space:normal;shape-padding:0;clip-rule:nonzero;display:inline;overflow:visible;visibility:visible;opacity:1;isolation:auto;mix-blend-mode:normal;color-interpolation:sRGB;color-interpolation-filters:linearRGB;solid-color:#000000;solid-opacity:1;vector-effect:none;fill:#363636;fill-opacity:1;fill-rule:nonzero;stroke:none;stroke-width:9.70116234;stroke-linecap:butt;stroke-linejoin:round;stroke-miterlimit:3.32999992;stroke-dasharray:none;stroke-dashoffset:0;stroke-opacity:1;color-rendering:auto;image-rendering:auto;shape-rendering:auto;text-rendering:auto;enable-background:accumulate"
       d="m 22.953721,-178.86184 a 4.851066,4.851066 0 0 0 -4.850581,4.85058 v 138.942612 a 4.851066,4.851066 0 0 0 4.850581,4.850581 H 243.99621 a 4.851066,4.851066 0 0 0 4.85058,-4.850581 V -174.01126 a 4.851066,4.851066 0 0 0 -4.85058,-4.85058 z m 4.850581,9.70116 H 239.14563 V -39.919229 H 27.804302 Z"
       id="rect2987"
       inkscape:connector-curvature="0" />
    <path
       style="fill:#363636;stroke:none;stroke-width:7.78492975"
       d="m 115.41338,-143.03173 -1.94935,-14.65798 c 0,0 -10.69842,-6.73558 -22.531854,-13.82351 -6.014605,-3.60255 -13.614301,-6.3713 -18.659832,-8.05841 -5.04553,-1.68716 -5.081076,-1.93464 -10.008485,-3.01361 -7.655216,-1.67627 -5.740343,-2.20743 -5.789577,-2.88135 -0.02328,-0.31781 0.124079,-2.86082 0.124079,-2.86082 l 22.481502,2.94703 18.364473,4.7436 c 0,0 7.653054,2.85632 25.944984,13.09978 18.52571,10.37437 49.29504,30.1159 49.29504,30.1159 l -10.59363,16.8213 -27.19885,-17.24476 c -23.39741,39.219988 -48.810204,79.858614 -69.339158,114.012681 0,0 -4.64284,7.059467 -12.46594,3.488086 -7.821121,-3.570513 -4.446144,-12.703366 -4.446144,-12.703366 z"
       id="path4360-9"
       inkscape:connector-curvature="0"
       sodipodi:nodetypes="ccsssscccsccccscc" />
    <path
       style="fill:#363636;fill-opacity:1;stroke:none;stroke-width:7.78492975"
       d="m 148.97432,-87.399171 10.49168,35.389859 -11.43123,3.131845 -28.49982,-10.648281 3.91481,-20.043813 z"
       id="path4434"
       inkscape:connector-curvature="0" />
    <path
       style="fill:#363636;fill-opacity:1;stroke:none;stroke-width:7.78492975"
       d="m 169.82337,-110.80301 18.24017,20.56204 -6.72279,5.718345 -22.58282,1.807287 -3.6819,-14.755024 z"
       id="path4434-7"
       inkscape:connector-curvature="0" />
    <path
       style="fill:#363636;fill-opacity:1;stroke:none;stroke-width:7.78492975"
       d="m 198.50304,-71.37387 -10.93231,31.530111 -10.04909,-3.720124 -15.33213,-22.836205 13.43447,-12.665634 z"
       id="path4434-5"
       inkscape:connector-curvature="0" />
  </g>
</svg>
