<?xml version="1.0" encoding="UTF-8"?>
<svg data-name="Layer 1" version="1.1" viewBox="0 0 216 216" xmlns="http://www.w3.org/2000/svg">
  <defs>
    <style>.cls-1{fill:#500000;}</style>
  </defs>
  <title>Artboard 1</title>
  <path class="cls-1" d="m172.73 84.32-12.51 26.02-12.53-26.02h-18.6v11.64h4.29v36.01h-4.52v11.65h21.16v-11.65h-4.67v-25.55l14.88 30.7 15.04-30.76v25.61h-4.53v11.65h21.16v-11.65h-4.65v-36.01h4.65v-11.64z" fill="#500000"/>
  <path class="cls-1" d="m80.57 131.94-15.66-36.17h3v-11.66h-25.13v11.66h3.46l-15.64 36.17h-6.5v11.64h22.81v-11.64h-3.33l2.6-6h18.82l2.6 6h-3.52v11.64h22.83v-11.64zm-20.57-17.67h-8.79l4.37-10.11z"/>
  <path class="cls-1" d="m42.6 39.11v37.4h25.4v-14.35h27.08v89.33h-14.34v25.4h54.1v-25.4h-14.33v-89.33h26.9v14.19h25.59v-37.24zm81.55 122.89 5.36-5.51v15.15l-5.36-5.13zm-8.95-5.12-5.36 5.29v-110.54l5.36 5.37zm-62-107.21-5.53-5.37h117.33l-6.94 5.37zm114.7 21.78-5.36-5.12v-13.65l5.36-5.52z"/>
  <path class="cls-1" d="m140.77 171.62c0-4.633 5.6011-6.9524 8.8768-3.6768s0.95626 8.8768-3.6768 8.8768c-2.8696-5e-3 -5.1945-2.3304-5.2-5.2zm9.1712-0.1875c-0.21882-3.4415-4.4401-4.9609-6.8022-2.4489s-0.58622 6.632 2.8622 6.6389c2.2618-0.0314 4.0477-1.9305 3.94-4.19zm-5.9712-2.8125h2.19c1.41 0 2.17 0.5 2.17 1.73 0.0738 0.8869-0.65119 1.6354-1.54 1.59l1.58 2.58h-1.12l-1.53-2.52h-0.66v2.54h-1.06zm2.1 2.52c0.65 0 1.21-0.08 1.21-0.87s-0.63-0.81-1.19-0.81h-1v1.68z"/>
</svg>
